<svg width="1200" height="1500" viewBox="0 0 1200 1500" fill="none" xmlns="http://www.w3.org/2000/svg">
  <defs>
    <linearGradient id="bg" x1="118" y1="84" x2="1048" y2="1414" gradientUnits="userSpaceOnUse">
      <stop stop-color="#17244B"/>
      <stop offset="0.54" stop-color="#0B1126"/>
      <stop offset="1" stop-color="#070B15"/>
    </linearGradient>
    <radialGradient id="glowA" cx="0" cy="0" r="1" gradientUnits="userSpaceOnUse" gradientTransform="translate(930 220) rotate(90) scale(304 362)">
      <stop stop-color="#6FDBFF" stop-opacity="0.74"/>
      <stop offset="1" stop-color="#6FDBFF" stop-opacity="0"/>
    </radialGradient>
    <radialGradient id="glowB" cx="0" cy="0" r="1" gradientUnits="userSpaceOnUse" gradientTransform="translate(282 1212) rotate(90) scale(248 308)">
      <stop stop-color="#FFC684" stop-opacity="0.28"/>
      <stop offset="1" stop-color="#FFC684" stop-opacity="0"/>
    </radialGradient>
    <linearGradient id="panel" x1="96" y1="120" x2="1102" y2="1372" gradientUnits="userSpaceOnUse">
      <stop stop-color="#101B34" stop-opacity="0.96"/>
      <stop offset="1" stop-color="#09111F" stop-opacity="0.98"/>
    </linearGradient>
    <clipPath id="tablet-screen">
      <rect x="530" y="470" width="362" height="510" rx="28"/>
    </clipPath>
    <clipPath id="paper-top">
      <rect x="782" y="352" width="214" height="292" rx="18"/>
    </clipPath>
    <clipPath id="paper-right">
      <rect x="906" y="470" width="196" height="336" rx="18"/>
    </clipPath>
  </defs>

  <rect width="1200" height="1500" rx="56" fill="url(#bg)"/>
  <rect x="34" y="34" width="1132" height="1432" rx="44" stroke="#7BCFFF" stroke-opacity="0.18"/>
  <circle cx="930" cy="220" r="312" fill="url(#glowA)"/>
  <circle cx="282" cy="1212" r="264" fill="url(#glowB)"/>

  <rect x="90" y="120" width="1020" height="1260" rx="40" fill="url(#panel)" stroke="#8AD9FF" stroke-opacity="0.16"/>

  <g opacity="0.16" stroke="#8BE3FF">
    <path d="M170 332H1032"/>
    <path d="M170 628H1032"/>
    <path d="M170 924H1032"/>
    <path d="M170 1220H1032"/>
  </g>

  <g opacity="0.92">
    <rect x="690" y="176" width="112" height="98" rx="22" fill="#13274A" stroke="#79D5FF" stroke-opacity="0.28"/>
    <rect x="814" y="176" width="112" height="98" rx="22" fill="#13274A" stroke="#79D5FF" stroke-opacity="0.28"/>
    <rect x="938" y="176" width="74" height="98" rx="22" fill="#13274A" stroke="#79D5FF" stroke-opacity="0.28"/>
    <rect x="716" y="204" width="60" height="12" rx="6" fill="#EAF8FF" fill-opacity="0.74"/>
    <rect x="716" y="228" width="74" height="12" rx="6" fill="#6EDBFF" fill-opacity="0.86"/>
    <path d="M842 210H900V242H842V210Z" fill="#6EDBFF" fill-opacity="0.88"/>
    <path d="M960 202H980V244H960V202Z" fill="#6EDBFF" fill-opacity="0.82"/>
    <path d="M988 188H1002V244H988V188Z" fill="#EAF8FF" fill-opacity="0.72"/>
  </g>

  <g transform="rotate(-4 886 500)">
    <rect x="760" y="326" width="268" height="366" rx="24" fill="#121B34" stroke="#87D9FF" stroke-opacity="0.22"/>
    <rect x="782" y="352" width="214" height="292" rx="18" fill="#0C1630"/>
    <g clip-path="url(#paper-top)">
      <image href="../armee/0f9fcf0b-ad99-42cc-853f-467d7204ae5f_rw_1200.webp" x="782" y="352" width="214" height="292" preserveAspectRatio="xMidYMid slice"/>
    </g>
  </g>

  <g transform="rotate(5 1004 632)">
    <rect x="884" y="446" width="236" height="392" rx="22" fill="#111A32" stroke="#87D9FF" stroke-opacity="0.2"/>
    <rect x="906" y="470" width="196" height="336" rx="18" fill="#0B152B"/>
    <g clip-path="url(#paper-right)">
      <image href="../armee/f5c57bfb-8886-4093-a462-a86238e83ab0_rw_1920.webp" x="906" y="470" width="196" height="336" preserveAspectRatio="xMidYMid slice"/>
    </g>
  </g>

  <g>
    <rect x="492" y="420" width="438" height="652" rx="42" fill="#152344" stroke="#89DBFF" stroke-opacity="0.24"/>
    <rect x="520" y="446" width="382" height="604" rx="34" fill="#0B152A" stroke="#DDF7FF" stroke-opacity="0.28"/>
    <rect x="530" y="470" width="362" height="510" rx="28" fill="#0D1730"/>
    <g clip-path="url(#tablet-screen)">
      <image href="../armee/06dfa4a4-46e9-4b25-bc2d-59625dceeec2_rw_1920.webp" x="530" y="470" width="362" height="510" preserveAspectRatio="xMidYMid slice"/>
    </g>
    <rect x="628" y="1002" width="164" height="14" rx="7" fill="#EAF8FF" fill-opacity="0.68"/>
    <rect x="598" y="1032" width="224" height="12" rx="6" fill="#86DDFF" fill-opacity="0.42"/>
  </g>

  <g>
    <rect x="194" y="1022" width="214" height="88" rx="44" fill="#121B33" stroke="#84D9FF" stroke-opacity="0.18"/>
    <ellipse cx="246" cy="1066" rx="28" ry="24" fill="#0B1528"/>
    <path d="M224 1066C224 1036 238 1018 262 1018C286 1018 300 1036 300 1066C300 1098 286 1116 262 1116H238C230 1116 224 1110 224 1102V1066Z" fill="#F4F4F0"/>
    <rect x="308" y="1048" width="70" height="16" rx="8" fill="#F4F4F0"/>
  </g>

  <rect x="142" y="1180" width="916" height="146" rx="34" fill="#09111F" fill-opacity="0.82" stroke="#8AD9FF" stroke-opacity="0.14"/>
  <rect x="178" y="1216" width="198" height="18" rx="9" fill="#EAF8FF" fill-opacity="0.82"/>
  <rect x="178" y="1248" width="424" height="16" rx="8" fill="#C0EDFF" fill-opacity="0.5"/>
  <rect x="178" y="1276" width="336" height="16" rx="8" fill="#8CDEFF" fill-opacity="0.42"/>
  <ellipse cx="604" cy="1118" rx="304" ry="40" fill="#6EDBFF" fill-opacity="0.18"/>
  <ellipse cx="604" cy="1118" rx="208" ry="16" fill="#6EDBFF" fill-opacity="0.34"/>
</svg>
